<?xml version="1.0" encoding="utf-8"?>
<!-- Generator: Adobe Illustrator 19.0.1, SVG Export Plug-In . SVG Version: 6.00 Build 0)  -->
<svg version="1.1" id="Layer_1" xmlns="http://www.w3.org/2000/svg" xmlns:xlink="http://www.w3.org/1999/xlink" x="0px" y="0px"
	 viewBox="118.5 322.8 149.2 149.2" style="enable-background:new 118.5 322.8 149.2 149.2;" xml:space="preserve">
<style type="text/css">
	.st0{fill:#FDFFFF;}
	.st1{fill:#FFFFFF;}
	.st2{fill:#70CADB;}
	.st3{fill:#E01765;}
	.st4{fill:#E8A723;}
	.st5{fill:#3EB890;}
	.st6{fill:#CC2027;}
	.st7{fill:#361238;}
	.st8{fill:#65863A;}
	.st9{fill:#1A937D;}
</style>
<title>background</title>
<title>Layer 1</title>
<g>
	<g>
		<g>
			<g>
				<path class="st0" d="M132,402.9c-5.5,0-10.1-3.2-11.9-8.3c-0.1-0.2-0.1-0.4-0.2-0.6c-1.9-6.5,1.8-13.4,8.3-15.6l104.2-34.9
					c1.3-0.4,2.5-0.5,3.8-0.6c5.6,0,10.4,3.3,12.2,8.5l0.2,0.5c1.9,6.8-2.9,12.9-8.7,14.9c0,0-1.1,0.4-103.7,35.4
					C134.8,402.6,133.4,402.8,132,402.9L132,402.9z"/>
			</g>
			<g>
				<path class="st1" d="M149.4,454.1c-5.5,0-10.2-3.2-11.9-8.2c-0.1-0.2-0.1-0.4-0.2-0.6c-1.9-6.6,1.7-13.5,8.2-15.7l104.2-35.2
					c1.3-0.5,2.7-0.7,4.1-0.7c5.6,0,10.4,3.4,12.2,8.4l0.2,0.5c1,3.5,0.4,7.5-1.6,10.6c-1.5,2.3-6.2,4.4-6.2,4.4l-104.6,35.8
					C152.3,453.8,150.8,454.1,149.4,454.1L149.4,454.1z"/>
			</g>
			<g>
				<path class="st1" d="M184.4,471.7c-5.6,0-10.5-3.5-12.3-8.7l-34.8-103.3c-0.1-0.2-0.1-0.4-0.2-0.6c-1.9-6.6,1.7-13.5,8.2-15.7
					c1.3-0.4,2.6-0.7,4-0.7c5.6,0,10.5,3.5,12.3,8.7l34.8,103.3c0.1,0.2,0.1,0.4,0.2,0.6c1.9,6.6-1.7,13.5-8.2,15.7
					C187.1,471.5,185.8,471.7,184.4,471.7L184.4,471.7L184.4,471.7z"/>
			</g>
			<g>
				<path class="st1" d="M236.1,454.3c-5.6,0-10.5-3.5-12.3-8.7l-34.8-103.3l-0.2-0.6c-1.9-6.6,1.7-13.5,8.2-15.7
					c1.3-0.4,2.6-0.7,4-0.7c2,0,4,0.4,5.8,1.3c3.1,1.5,5.4,4.2,6.4,7.4l34.8,103.3l0.1,0.3c2,6.8-1.7,13.7-8.2,15.9
					C238.8,454.1,237.5,454.3,236.1,454.3L236.1,454.3z"/>
			</g>
			<g>
				<path class="st2" d="M132,402.9c-5.5,0-10.1-3.2-11.9-8.3c-0.1-0.2-0.1-0.4-0.2-0.6c-1.9-6.5,1.8-13.4,8.3-15.6l104.2-34.9
					c1.3-0.4,2.5-0.5,3.8-0.6c5.6,0,10.4,3.3,12.2,8.5l0.2,0.5c1.9,6.8-2.9,12.9-8.7,14.9c0,0-1.1,0.4-103.7,35.4
					C134.8,402.6,133.4,402.8,132,402.9L132,402.9z"/>
			</g>
			<g>
				<path class="st3" d="M149.4,454.1c-5.5,0-10.2-3.2-11.9-8.2c-0.1-0.2-0.1-0.4-0.2-0.6c-1.9-6.6,1.7-13.5,8.2-15.7l104.2-35.2
					c1.3-0.5,2.7-0.7,4.1-0.7c5.6,0,10.4,3.4,12.2,8.4l0.2,0.5c1,3.5,0.4,7.5-1.6,10.6c-1.5,2.3-6.2,4.4-6.2,4.4l-104.6,35.8
					C152.3,453.8,150.8,454.1,149.4,454.1L149.4,454.1z"/>
			</g>
			<g>
				<path class="st4" d="M236.1,454.3c-5.6,0-10.5-3.5-12.3-8.7l-34.8-103.3l-0.2-0.6c-1.9-6.6,1.7-13.5,8.2-15.7
					c1.3-0.4,2.6-0.7,4-0.7c2,0,4,0.4,5.8,1.3c3.1,1.5,5.4,4.2,6.4,7.4l34.8,103.3l0.1,0.3c2,6.8-1.7,13.7-8.2,15.9
					C238.8,454.1,237.5,454.3,236.1,454.3L236.1,454.3z"/>
			</g>
			<g>
				<path class="st5" d="M184.4,471.7c-5.6,0-10.5-3.5-12.3-8.7l-34.8-103.3c-0.1-0.2-0.1-0.4-0.2-0.6c-1.9-6.6,1.7-13.5,8.2-15.7
					c1.3-0.4,2.6-0.7,4-0.7c5.6,0,10.5,3.5,12.3,8.7l34.8,103.3c0.1,0.2,0.1,0.4,0.2,0.6c1.9,6.6-1.7,13.5-8.2,15.7
					C187.1,471.5,185.8,471.7,184.4,471.7L184.4,471.7L184.4,471.7z"/>
			</g>
			<path class="st6" d="M219,431.1l24.3-8.3l-7.9-23.5l-24.3,8.2L219,431.1z"/>
			<path class="st7" d="M167.4,448.7l24.3-8.3l-8-23.7l-24.3,8.2L167.4,448.7z"/>
			<path class="st8" d="M201.7,379.8l24.3-8.3l-7.8-23.3l-24.3,8.1L201.7,379.8z"/>
			<path class="st9" d="M150.1,397.4l24.3-8.3l-7.9-23.6l-24.3,8.1L150.1,397.4L150.1,397.4z"/>
			<path class="st8" d="M201.7,379.8l24.3-8.3l-7.8-23.3l-24.3,8.1L201.7,379.8z"/>
			<path class="st9" d="M150.1,397.4l24.3-8.3l-7.9-23.6l-24.3,8.1L150.1,397.4L150.1,397.4z"/>
		</g>
	</g>
</g>
</svg>
