<?xml version="1.0" encoding="utf-8"?>
<!-- Generator: Adobe Illustrator 19.0.1, SVG Export Plug-In . SVG Version: 6.00 Build 0)  -->
<svg version="1.1" id="svg54595" xmlns:svg="http://www.w3.org/2000/svg"
	 xmlns="http://www.w3.org/2000/svg" xmlns:xlink="http://www.w3.org/1999/xlink" x="0px" y="0px" viewBox="206 140.5 1024 512"
	 style="enable-background:new 206 140.5 1024 512;" xml:space="preserve">
<style type="text/css">
	.st0{fill:#FFFFFF;}
	.st1{fill:#29ACFF;}
	.st2{fill:#262C38;}
</style>
<path id="path54471" class="st0" d="M671.6,335l0,11.2l0.7,0.9L671.6,335L671.6,335z M671.6,335l0.8,12.1l0-11L671.6,335L671.6,335z
	 M671.9,435.7l0,11.2l0.7-1.1L671.9,435.7L671.9,435.7z M671.9,435.7l0.8,10.1l0-11L671.9,435.7L671.9,435.7z M694.7,335.1l0,111.7
	l0.3-1.1L694.7,335.1L694.7,335.1z M694.7,335.1l0.3,110.6l0-109.5L694.7,335.1L694.7,335.1z M573.9,345.9l97.7,0.3l0-11.2
	L573.9,345.9L573.9,345.9z M680.8,346.2l13.9-11.1h-13.9L680.8,346.2L680.8,346.2z M680.8,346.2l13.9,100.6l0-111.7L680.8,346.2
	L680.8,346.2z M576.5,357l95.2-10.8l-97.7-0.3L576.5,357z M576.5,357l104.4-10.8h-9.2L576.5,357z M576.5,357l104.6,78.6
	c-0.1-29.8-0.1-59.6-0.2-89.5L576.5,357L576.5,357z M681.1,435.7l13.7,11.1l-13.9-100.6L681.1,435.7L681.1,435.7z M573.9,345.9
	l97.7-10.9h-101L573.9,345.9z M578.3,368.2l102.8,67.4L576.5,357L578.3,368.2z M579.4,379.6l101.7,56.1l-102.8-67.4L579.4,379.6z
	 M579.8,390.9l101.3,44.8l-101.7-56.1L579.8,390.9z M579.5,402.3l101.6,33.4l-101.3-44.8L579.5,402.3L579.5,402.3z M578.4,413.6
	l102.7,22.1l-101.6-33.4L578.4,413.6z M576.6,424.8l104.4,10.9l-102.7-22.1L576.6,424.8L576.6,424.8z M574.1,435.9l97.8-0.3
	l-95.3-10.9L574.1,435.9z M671.9,435.7h9.2l-104.4-10.9L671.9,435.7z M574.1,435.9l97.8,10.9l0-11.2L574.1,435.9L574.1,435.9z
	 M681.1,446.8h13.6l-13.7-11.1L681.1,446.8L681.1,446.8z M570.9,446.8h101l-97.8-10.9L570.9,446.8L570.9,446.8z"/>
<path id="path54473" class="st1" d="M388,571l11.5,0.3l11.5-0.4L388,571L388,571z M388,571l23.1-0.1l-34.5-1L388,571L388,571z
	 M376.6,569.9l34.5,1l11.5-1.1L376.6,569.9L376.6,569.9z M376.6,569.9l46-0.1l-57.4-1.6L376.6,569.9L376.6,569.9z M365.2,568.2
	l57.4,1.6L434,568L365.2,568.2L365.2,568.2z M365.2,568.2L434,568l-80.1-2.3L365.2,568.2L365.2,568.2z M353.9,565.7L434,568
	l11.2-2.5L353.9,565.7L353.9,565.7z M353.9,565.7l91.3-0.2l-102.4-2.9L353.9,565.7L353.9,565.7z M342.8,562.6l102.4,2.9l11.1-3.2
	L342.8,562.6L342.8,562.6z M342.8,562.6l113.4-0.3L332,558.8L342.8,562.6L342.8,562.6z M332,558.8l124.3,3.6l10.8-3.9L332,558.8z
	 M332,558.8l135.2-0.3l-145.8-4.2L332,558.8z M321.4,554.3l145.8,4.2l10.6-4.5L321.4,554.3z M321.4,554.3l156.3-0.4l-166.6-4.8
	L321.4,554.3L321.4,554.3z M311.1,549.1l166.6,4.8l10.3-5.2C487.9,548.7,311.1,549.1,311.1,549.1z M311.1,549.1l176.9-0.4
	l-186.8-5.3L311.1,549.1z M301.1,543.4l186.8,5.3l9.9-5.8L301.1,543.4L301.1,543.4z M301.1,543.4l196.7-0.5L291.6,537L301.1,543.4z
	 M291.6,537l206.3,5.9l9.5-6.4L291.6,537z M291.6,537l215.8-0.5l-224.9-6.4C282.4,530.1,291.6,537,291.6,537z M282.4,530.1
	l224.9,6.4l9.1-7C516.5,529.5,282.4,530.1,282.4,530.1z M282.4,530.1l234-0.6l-242.7-6.9L282.4,530.1L282.4,530.1z M273.8,522.6
	l242.7,6.9l8.6-7.5C525.1,522,273.8,522.6,273.8,522.6z M273.8,522.6l251.3-0.6l-259.5-7.4L273.8,522.6L273.8,522.6z M265.6,514.6
	l259.5,7.4l8.1-8.1L265.6,514.6z M265.6,514.6l267.6-0.6L258,506L265.6,514.6L265.6,514.6z M258,506l275.3,7.9l7.6-8.5L258,506
	L258,506z M258,506l282.9-0.7l-290-8.3L258,506L258,506z M250.9,497.1l290,8.3l7-9L250.9,497.1L250.9,497.1z M250.9,497.1l297-0.7
	l-303.5-8.7L250.9,497.1L250.9,497.1z M244.4,487.7l303.5,8.7l6.5-9.4L244.4,487.7L244.4,487.7z M244.4,487.7l310-0.7l-315.9-9
	C238.5,477.9,244.4,487.7,244.4,487.7z M238.5,477.9l315.9,9l5.8-9.8C560.2,477.2,238.5,477.9,238.5,477.9z M238.5,477.9l321.7-0.8
	l-327-9.4C233.2,467.8,238.5,477.9,238.5,477.9z M233.2,467.8l327,9.4l5.2-10.1C565.4,467,233.2,467.8,233.2,467.8z M233.2,467.8
	l332.2-0.8l-336.8-9.6L233.2,467.8L233.2,467.8z M228.6,457.4l336.8,9.6l4.5-10.5L228.6,457.4L228.6,457.4z M228.6,457.4l341.4-0.8
	l-345.3-9.9L228.6,457.4L228.6,457.4z M224.7,446.7l345.3,9.9l3.9-10.7C573.9,445.9,224.7,446.7,224.7,446.7z M224.7,446.7
	l349.2-0.8H473.7L224.7,446.7L224.7,446.7z M224.7,446.7l249-0.8l-3.6-0.1L224.7,446.7L224.7,446.7z M224.7,446.7l245.5-0.9
	l-3.6-0.3L224.7,446.7L224.7,446.7z M224.7,446.7l241.9-1.3l-3.5-0.5C463.1,444.9,224.7,446.7,224.7,446.7z M224.7,446.7l238.4-1.8
	l-3.5-0.8L224.7,446.7L224.7,446.7z M224.7,446.7l234.9-2.6l-3.4-1C456.2,443.2,224.7,446.7,224.7,446.7z M224.7,446.7l231.5-3.5
	l-3.4-1.2C452.8,442,224.7,446.7,224.7,446.7z M224.7,446.7l228.1-4.7l-3.3-1.4C449.5,440.6,224.7,446.7,224.7,446.7z M224.7,446.7
	l224.9-6.1l-3.2-1.6L224.7,446.7L224.7,446.7z M224.7,446.7l221.7-7.7l-3.1-1.8C443.3,437.2,224.7,446.7,224.7,446.7z M224.7,446.7
	l218.6-9.5l-221.8-1.4C221.4,435.8,224.7,446.7,224.7,446.7z M221.4,435.8l221.8,1.4l-3-2C440.3,435.3,221.4,435.8,221.4,435.8z
	 M221.4,435.8l218.9-0.5l-2.8-2.1L221.4,435.8L221.4,435.8z M221.4,435.8l216.1-2.7l-2.7-2.3C434.8,430.8,221.4,435.8,221.4,435.8z
	 M221.4,435.8l213.4-5l-2.5-2.5C432.3,428.3,221.4,435.8,221.4,435.8z M221.4,435.8l210.9-7.5l-2.4-2.6
	C429.9,425.7,221.4,435.8,221.4,435.8z M221.4,435.8l208.5-10.1l-211.1-1L221.4,435.8L221.4,435.8z M218.9,424.7l211.1,1l-2.2-2.8
	L218.9,424.7L218.9,424.7z M218.9,424.7l208.9-1.8l-2-2.9L218.9,424.7L218.9,424.7z M218.9,424.7l206.9-4.7l-1.8-3
	C423.9,417,218.9,424.7,218.9,424.7z M218.9,424.7l205-7.7l-1.6-3.1C422.3,413.9,218.9,424.7,218.9,424.7z M218.9,424.7l203.4-10.9
	l-205.2-0.4C217.1,413.5,218.9,424.7,218.9,424.7z M217.1,413.5l205.2,0.4l-1.4-3.2L217.1,413.5z M217.1,413.5l203.8-2.8l-1.2-3.3
	L217.1,413.5L217.1,413.5z M217.1,413.5l202.6-6.2l-1-3.4L217.1,413.5L217.1,413.5z M217.1,413.5l201.6-9.5l-202.7-1.8
	C215.9,402.2,217.1,413.5,217.1,413.5z M215.9,402.2l202.7,1.8l-0.8-3.4C417.9,400.6,215.9,402.2,215.9,402.2z M215.9,402.2
	l201.9-1.6l-0.6-3.5C417.3,397.1,215.9,402.2,215.9,402.2z M215.9,402.2l201.4-5.1l-0.3-3.5C417,393.6,215.9,402.2,215.9,402.2z
	 M215.9,402.2l201-8.6l-201.4-2.7C215.6,390.8,215.9,402.2,215.9,402.2z M215.6,390.8l201.4,2.7l-0.1-3.5L215.6,390.8L215.6,390.8z
	 M215.6,390.8l201.3-0.8l0.1-3.5L215.6,390.8L215.6,390.8z M215.6,390.8l201.4-4.3l0.3-3.5L215.6,390.8z M215.6,390.8l201.7-7.8
	l0.6-3.5L215.6,390.8z M215.6,390.8l202.3-11.3l-202-0.1L215.6,390.8L215.6,390.8z M215.9,379.5l202,0.1l0.8-3.4L215.9,379.5
	L215.9,379.5z M215.9,379.5l202.7-3.3l1-3.4C419.6,372.8,215.9,379.5,215.9,379.5z M215.9,379.5l203.7-6.7l1.2-3.3L215.9,379.5
	L215.9,379.5z M215.9,379.5l204.9-10L217,368.2L215.9,379.5L215.9,379.5z M217,368.2l203.8,1.3l1.4-3.2
	C422.2,366.2,217,368.2,217,368.2z M217,368.2l205.3-1.9l1.6-3.1C423.8,363.1,217,368.2,217,368.2z M217,368.2l206.9-5l1.8-3
	C425.6,360.1,217,368.2,217,368.2z M217,368.2l208.7-8.1l2-2.9C427.6,357.2,217,368.2,217,368.2z M217,368.2l210.7-11l-208.9-0.3
	L217,368.2L217,368.2z M218.7,356.9l208.9,0.3l2.2-2.8C429.8,354.4,218.7,356.9,218.7,356.9z M218.7,356.9l211.1-2.5l2.4-2.6
	C432.2,351.8,218.7,356.9,218.7,356.9z M218.7,356.9l213.4-5.2l2.5-2.5C434.7,349.3,218.7,356.9,218.7,356.9z M218.7,356.9l216-7.7
	l2.7-2.3C437.3,346.9,218.7,356.9,218.7,356.9z M218.7,356.9l218.6-10l-216.1-1.1C221.2,345.8,218.7,356.9,218.7,356.9z
	 M221.2,345.8l216.1,1.1l2.8-2.1C440.2,344.8,221.2,345.8,221.2,345.8z M221.2,345.8l219-1.1l2.9-2
	C443.1,342.8,221.2,345.8,221.2,345.8z M221.2,345.8l221.9-3l3.1-1.8C446.2,341,221.2,345.8,221.2,345.8z M221.2,345.8l225-4.8
	l3.2-1.6L221.2,345.8L221.2,345.8z M221.2,345.8l228.1-6.4l3.3-1.4C452.6,338,221.2,345.8,221.2,345.8z M221.2,345.8l231.4-7.8
	l3.3-1.2C456,336.8,221.2,345.8,221.2,345.8z M221.2,345.8l234.8-9l3.4-1C459.4,335.8,221.2,345.8,221.2,345.8z M221.2,345.8
	l238.2-10l3.5-0.8C462.9,335.1,221.2,345.8,221.2,345.8z M221.2,345.8l241.7-10.8l-238.5-0.1L221.2,345.8L221.2,345.8z M224.4,334.9
	l238.5,0.1l3.5-0.6L224.4,334.9L224.4,334.9z M224.4,334.9l242-0.4l3.5-0.3L224.4,334.9L224.4,334.9z M224.4,334.9l245.5-0.8
	l3.6-0.1L224.4,334.9L224.4,334.9z M473.5,334l100.1,0l-345.3-9.9L473.5,334L473.5,334z M224.4,334.9l249.1-0.9l-245.2-9.8
	L224.4,334.9z M228.3,324.2l345.3,9.9l-3.9-10.7L228.3,324.2z M228.3,324.2l341.4-0.8l-336.8-9.6L228.3,324.2z M232.8,313.8
	l336.8,9.6L565,313C565,313,232.8,313.8,232.8,313.8z M232.8,313.8L565,313l-327-9.3L232.8,313.8L232.8,313.8z M238,303.6l327,9.3
	l-5.3-10.1L238,303.6L238,303.6z M238,303.6l321.8-0.8l-315.9-9L238,303.6L238,303.6z M243.9,293.8l315.9,9l-5.9-9.8L243.9,293.8
	L243.9,293.8z M243.9,293.8l310-0.7l-303.5-8.7L243.9,293.8L243.9,293.8z M250.4,284.4l303.5,8.7l-6.5-9.4
	C547.4,283.7,250.4,284.4,250.4,284.4z M250.4,284.4l297-0.7l-290-8.3C257.4,275.4,250.4,284.4,250.4,284.4z M257.4,275.4l290,8.3
	l-7.1-9C540.3,274.7,257.4,275.4,257.4,275.4z M257.4,275.4l282.9-0.7L265,266.9C265,266.9,257.4,275.4,257.4,275.4z M265,266.9
	l275.3,7.9l-7.6-8.5C532.6,266.2,265,266.9,265,266.9z M265,266.9l267.6-0.6l-259.5-7.4C273.1,258.8,265,266.9,265,266.9z
	 M273.1,258.8l259.5,7.4l-8.2-8C524.5,258.2,273.1,258.8,273.1,258.8z M273.1,258.8l251.3-0.6l-242.7-7
	C281.8,251.3,273.1,258.8,273.1,258.8z M281.8,251.3l242.7,7l-8.7-7.5L281.8,251.3L281.8,251.3z M281.8,251.3l234-0.5l-224.9-6.4
	C290.9,244.3,281.8,251.3,281.8,251.3z M290.9,244.3l224.9,6.4l-9.1-7C506.7,243.8,290.9,244.3,290.9,244.3z M290.9,244.3l215.8-0.5
	l-206.3-5.9L290.9,244.3L290.9,244.3z M300.4,237.9l206.3,5.9l-9.5-6.4C497.1,237.4,300.4,237.9,300.4,237.9z M300.4,237.9
	l196.7-0.5l-186.8-5.3L300.4,237.9z M310.3,232.1l186.8,5.3l-9.9-5.8L310.3,232.1z M310.3,232.1l176.9-0.4l-166.6-4.8L310.3,232.1z
	 M320.6,226.9l166.6,4.8l-10.3-5.1C476.9,226.5,320.6,226.9,320.6,226.9z M320.6,226.9l156.3-0.4l-145.8-4.2
	C331.1,222.4,320.6,226.9,320.6,226.9z M331.1,222.4l145.8,4.2l-10.6-4.5L331.1,222.4L331.1,222.4z M331.1,222.4l135.2-0.3
	L342,218.5L331.1,222.4z M342,218.5l124.3,3.5l-10.9-3.8C455.5,218.2,342,218.5,342,218.5z M342,218.5l113.5-0.3l-102.4-2.9
	C353.1,215.3,342,218.5,342,218.5z M353.1,215.3l102.4,2.9l-11.1-3.1L353.1,215.3L353.1,215.3z M353.1,215.3l91.3-0.2l-80-2.3
	L353.1,215.3L353.1,215.3z M364.3,212.8l80,2.3l-11.3-2.4L364.3,212.8L364.3,212.8z M364.3,212.8l68.8-0.2l-57.4-1.6L364.3,212.8
	L364.3,212.8z M375.7,211l57.4,1.6l-11.4-1.7L375.7,211L375.7,211z M375.7,211l46-0.1l-34.5-1L375.7,211L375.7,211z M387.2,209.9
	l34.5,1l-11.5-1.1L387.2,209.9L387.2,209.9z M387.2,209.9l23.1,0l-11.5-0.3L387.2,209.9L387.2,209.9z M470.1,445.8l8.2-1l-3.5-0.1
	L470.1,445.8L470.1,445.8z M470.1,445.8l3.6,0.1l4.7-1.1L470.1,445.8L470.1,445.8z M466.6,445.5l8.3-0.8l-3.5-0.3L466.6,445.5z
	 M466.6,445.5l3.6,0.3l4.7-1.1L466.6,445.5z M463.1,444.9l8.3-0.5l-3.4-0.5L463.1,444.9L463.1,444.9z M463.1,444.9l3.5,0.5l4.8-1.1
	L463.1,444.9L463.1,444.9z M459.6,444.2l8.4-0.3l-3.4-0.8L459.6,444.2z M459.6,444.2l3.5,0.8l4.9-1.1L459.6,444.2L459.6,444.2z
	 M456.2,443.2l8.4-0.1l-3.4-1L456.2,443.2L456.2,443.2z M456.2,443.2l3.4,1l5-1.1L456.2,443.2L456.2,443.2z M452.8,442l8.4,0.1
	l-3.3-1.2L452.8,442L452.8,442z M452.8,442l3.4,1.2l5-1L452.8,442L452.8,442z M449.5,440.6l8.4,0.4l-3.2-1.4L449.5,440.6z
	 M449.5,440.6l3.3,1.4l5.1-1L449.5,440.6z M446.3,439l8.3,0.6l-3.1-1.6L446.3,439z M446.3,439l3.2,1.6l5.1-1L446.3,439L446.3,439z
	 M443.3,437.2l8.3,0.8l-3-1.7L443.3,437.2z M443.3,437.2l3.1,1.8l5.2-1L443.3,437.2z M440.3,435.3l8.2,1.1l-2.9-1.9L440.3,435.3
	L440.3,435.3z M440.3,435.3l3,2l5.3-0.9L440.3,435.3z M437.5,433.1l8.2,1.3l-2.8-2.1L437.5,433.1L437.5,433.1z M437.5,433.1l2.8,2.1
	l5.3-0.9L437.5,433.1z M434.8,430.8l8.1,1.5l-2.6-2.3L434.8,430.8z M434.8,430.8l2.7,2.3l5.4-0.8L434.8,430.8L434.8,430.8z
	 M432.3,428.3l8,1.7l-2.5-2.4L432.3,428.3L432.3,428.3z M432.3,428.3l2.5,2.5l5.4-0.8L432.3,428.3L432.3,428.3z M429.9,425.7
	l7.8,1.9l-2.3-2.6L429.9,425.7z M429.9,425.7l2.4,2.6l5.5-0.8L429.9,425.7z M427.8,422.9l7.7,2.1l-2.1-2.7L427.8,422.9z
	 M427.8,422.9l2.2,2.8l5.5-0.7L427.8,422.9L427.8,422.9z M425.7,420l7.6,2.3l-2-2.8L425.7,420z M425.7,420l2,2.9l5.6-0.6L425.7,420z
	 M423.9,417l7.4,2.4l-1.8-3L423.9,417z M423.9,417l1.8,3l5.6-0.6L423.9,417L423.9,417z M422.3,413.9l7.3,2.6l-1.6-3.1L422.3,413.9
	L422.3,413.9z M422.3,413.9l1.6,3.1l5.6-0.5L422.3,413.9L422.3,413.9z M420.9,410.7l7.1,2.8l-1.4-3.2L420.9,410.7L420.9,410.7z
	 M420.9,410.7l1.4,3.2l5.7-0.4L420.9,410.7L420.9,410.7z M419.7,407.3l6.9,2.9l-1.2-3.2L419.7,407.3z M419.7,407.3l1.2,3.3l5.7-0.4
	L419.7,407.3L419.7,407.3z M418.7,404l6.7,3l-1-3.3L418.7,404L418.7,404z M418.7,404l1,3.4l5.7-0.3L418.7,404z M417.9,400.6l6.5,3.1
	l-0.8-3.4L417.9,400.6L417.9,400.6z M417.9,400.6l0.8,3.4l5.7-0.3L417.9,400.6z M417.3,397.1l6.3,3.3l-0.5-3.4L417.3,397.1
	L417.3,397.1z M417.3,397.1l0.6,3.5l5.8-0.2L417.3,397.1L417.3,397.1z M417,393.6l6.1,3.4l-0.3-3.4L417,393.6z M417,393.6l0.3,3.5
	l5.8-0.1L417,393.6L417,393.6z M416.9,390.1l5.9,3.4l-0.1-3.4L416.9,390.1L416.9,390.1z M416.9,390.1l0.1,3.5l5.8-0.1L416.9,390.1
	L416.9,390.1z M417,386.6l5.7,3.5l0.1-3.4L417,386.6L417,386.6z M417,386.6l-0.1,3.5l5.8,0L417,386.6L417,386.6z M417.3,383.1
	l5.5,3.6l0.3-3.4L417.3,383.1L417.3,383.1z M417.3,383.1l-0.3,3.5l5.8,0.1L417.3,383.1L417.3,383.1z M417.9,379.6l5.2,3.6l0.5-3.4
	L417.9,379.6L417.9,379.6z M417.9,379.6l-0.6,3.5l5.8,0.1L417.9,379.6z M418.6,376.2l5,3.6l0.8-3.4L418.6,376.2z M418.6,376.2
	l-0.8,3.4l5.8,0.2L418.6,376.2L418.6,376.2z M419.6,372.8l4.8,3.7l1-3.3L419.6,372.8z M419.6,372.8l-1,3.4l5.8,0.3L419.6,372.8
	L419.6,372.8z M420.8,369.5l4.5,3.7l1.2-3.2L420.8,369.5z M420.8,369.5l-1.2,3.3l5.7,0.3L420.8,369.5z M422.2,366.2l4.3,3.6l1.4-3.2
	L422.2,366.2z M422.2,366.2l-1.4,3.2l5.7,0.4L422.2,366.2L422.2,366.2z M423.8,363.1l4.1,3.6l1.6-3.1L423.8,363.1L423.8,363.1z
	 M423.8,363.1l-1.6,3.1l5.7,0.5C427.9,366.7,423.8,363.1,423.8,363.1z M425.6,360.1l3.9,3.6l1.8-3L425.6,360.1z M425.6,360.1l-1.8,3
	l5.7,0.5L425.6,360.1z M427.6,357.2l3.6,3.5l2-2.9L427.6,357.2L427.6,357.2z M427.6,357.2l-2,2.9l5.6,0.6
	C431.2,360.7,427.6,357.2,427.6,357.2z M429.8,354.4l3.4,3.4l2.1-2.7L429.8,354.4L429.8,354.4z M429.8,354.4l-2.2,2.8l5.6,0.7
	L429.8,354.4z M432.2,351.8l3.2,3.3l2.3-2.6L432.2,351.8L432.2,351.8z M432.2,351.8l-2.4,2.6l5.5,0.7L432.2,351.8z M434.7,349.3
	l3,3.3l2.5-2.4L434.7,349.3z M434.7,349.3l-2.5,2.5l5.5,0.8L434.7,349.3L434.7,349.3z M437.3,346.9l2.8,3.1l2.6-2.3L437.3,346.9
	L437.3,346.9z M437.3,346.9l-2.6,2.3l5.4,0.8C440.1,350.1,437.3,346.9,437.3,346.9z M440.2,344.8l2.6,3l2.8-2.1L440.2,344.8z
	 M440.2,344.8l-2.8,2.1l5.4,0.9L440.2,344.8z M443.1,342.8l2.4,2.9l2.9-1.9L443.1,342.8L443.1,342.8z M443.1,342.8l-2.9,2l5.3,0.9
	L443.1,342.8z M446.2,341l2.2,2.7l3-1.8L446.2,341L446.2,341z M446.2,341l-3.1,1.8l5.3,0.9L446.2,341L446.2,341z M449.4,339.4l2,2.6
	l3.1-1.6L449.4,339.4L449.4,339.4z M449.4,339.4l-3.2,1.6l5.2,1L449.4,339.4z M452.6,338l1.9,2.4l3.2-1.4
	C457.7,339,452.6,338,452.6,338z M452.6,338l-3.3,1.4l5.2,1L452.6,338L452.6,338z M456,336.8l1.7,2.2l3.3-1.2
	C461,337.9,456,336.8,456,336.8z M456,336.8l-3.3,1.2l5.1,1C457.7,339,456,336.8,456,336.8z M459.4,335.8l1.6,2l3.3-1L459.4,335.8
	L459.4,335.8z M459.4,335.8l-3.4,1l5,1.1L459.4,335.8z M462.9,335.1l1.5,1.8l3.4-0.8L462.9,335.1z M462.9,335.1l-3.5,0.8l4.9,1.1
	L462.9,335.1z M466.4,334.5l1.4,1.6l3.4-0.5L466.4,334.5z M466.4,334.5l-3.5,0.6l4.9,1.1L466.4,334.5z M469.9,334.2l1.3,1.4l3.5-0.3
	L469.9,334.2z M469.9,334.2l-3.5,0.3l4.8,1.1L469.9,334.2z M473.5,334l1.2,1.2l3.5-0.1L473.5,334L473.5,334z M473.5,334l-3.6,0.1
	l4.8,1.1L473.5,334L473.5,334z M473.7,445.9l102.9-1.1h-98.2L473.7,445.9L473.7,445.9z M473.7,445.9h100.2l2.7-1.1L473.7,445.9z
	 M516.5,529.5l-5.1,4.1l8.9-6.9L516.5,529.5L516.5,529.5z M516.5,529.5l-9.1,7l4-2.9L516.5,529.5L516.5,529.5z M525.1,522l-4.8,4.8
	l8.5-7.4L525.1,522L525.1,522z M525.1,522l-8.6,7.5l3.8-2.7L525.1,522L525.1,522z M533.2,513.9l-4.5,5.5l8-7.9L533.2,513.9
	L533.2,513.9z M533.2,513.9l-8.1,8.1l3.7-2.6L533.2,513.9z M540.9,505.4l-4.1,6.1l7.5-8.4L540.9,505.4z M540.9,505.4l-7.6,8.5
	l3.5-2.4L540.9,505.4L540.9,505.4z M547.9,496.4l-3.7,6.7l6.9-8.8L547.9,496.4L547.9,496.4z M547.9,496.4l-7,9l3.4-2.3L547.9,496.4z
	 M554.4,487l-3.2,7.3l6.3-9.2L554.4,487z M554.4,487l-6.5,9.4l3.2-2.1L554.4,487z M560.2,477.2l-2.8,7.9l5.7-9.6L560.2,477.2
	L560.2,477.2z M560.2,477.2l-5.8,9.8l3.1-1.9L560.2,477.2L560.2,477.2z M565.4,467l-5.2,10.1l3-1.7L565.4,467z M573.6,334.1
	l-95.4,1.1l98.1,0L573.6,334.1L573.6,334.1z M573.6,334.1l-100.1,0l4.7,1.1L573.6,334.1L573.6,334.1z M559.8,302.9l8.1,11.6
	l-5.1-9.9L559.8,302.9z M559.8,302.9L565,313l2.9,1.5L559.8,302.9z M553.9,293.1l8.9,11.5L557,295L553.9,293.1z M553.9,293.1
	l5.9,9.8l3,1.7L553.9,293.1L553.9,293.1z M547.4,283.7L557,295l-6.4-9.2L547.4,283.7z M547.4,283.7l6.5,9.4l3.1,1.9L547.4,283.7z
	 M540.3,274.7l10.3,11.1l-6.9-8.8L540.3,274.7z M540.3,274.7l7.1,9l3.2,2.1L540.3,274.7z M532.6,266.2l11,10.8l-7.5-8.3L532.6,266.2
	z M532.6,266.2l7.6,8.5l3.4,2.3L532.6,266.2z M524.5,258.2l11.7,10.4l-8-7.9L524.5,258.2z M524.5,258.2l8.2,8l3.5,2.4L524.5,258.2
	L524.5,258.2z M515.8,250.7l12.4,10.1l-8.5-7.4L515.8,250.7L515.8,250.7z M515.8,250.7l8.7,7.5l3.7,2.6L515.8,250.7L515.8,250.7z
	 M506.7,243.8l13,9.7l-9-6.8C510.7,246.7,506.7,243.8,506.7,243.8z M506.7,243.8l9.1,6.9l3.9,2.7
	C519.7,253.5,506.7,243.8,506.7,243.8z M565,313l4.6,10.4l2.8,1.3C572.4,324.7,565,313,565,313z M565,313l7.4,11.7l-4.5-10.2
	L565,313z M569.7,323.4l3.9,10.7l2.7,1.1L569.7,323.4L569.7,323.4z M569.7,323.4l6.6,11.8l-3.8-10.5L569.7,323.4z M573.9,445.9
	l-3.9,10.7l2.8-1.3L573.9,445.9z M573.9,445.9l-1.1,9.4l3.8-10.5L573.9,445.9L573.9,445.9z M570,456.6l-4.5,10.5l2.9-1.5L570,456.6
	L570,456.6z M570,456.6l-1.7,8.9l4.5-10.2L570,456.6z M565.4,467l-2.2,8.4l5.1-9.9L565.4,467L565.4,467z"/>
<path id="path54475" class="st0" d="M703.9,377.5v26.8L915,390.9L703.9,377.5L703.9,377.5z M1208.7,335.1H703.9v22.3L1208.7,335.1z
	 M703.9,424.4v22.3h504.8L703.9,424.4z M703.9,424.4l495,21.2L704,423.8L703.9,424.4L703.9,424.4z M703.9,424.4l504.8,22.3l-9.8-1.1
	L703.9,424.4z M703.9,357.4l495.1-21.2l9.8-1.1L703.9,357.4L703.9,357.4z M703.9,357.4l0.1,0.7l494.9-21.9L703.9,357.4L703.9,357.4z
	"/>
<path id="path54487" class="st0" d="M1205.8,459.9v13.9h-28.5v55.6h-47.9v-55.6h-28.4v-13.9H1205.8z M1012.6,459.9h79.9v13.9h-31.9
	V487h29.9v13.2h-29.9v15.3h35.2v13.9h-83.1V459.9z M972.1,459.9v55.6h29.1v13.9h-77.1v-69.5H972.1z M883.4,459.9v55.6h29.1v13.9
	h-77.1v-69.5H883.4z M817.3,459.9v46.4c0,5.3-0.5,9-1.4,11.1c-0.9,2.1-3.6,4.3-8.1,6.6c-4.5,2.2-10.3,3.9-17.7,5.1
	c-7.3,1.1-16,1.7-25.9,1.7c-11,0-20.7-0.7-29.1-2c-8.4-1.4-14.7-3.2-18.9-5.4c-4.2-2.2-6.6-4.5-7.4-6.9c-0.8-2.5-1.1-7.6-1.1-15.5
	v-41.1h47.9V512c0,3,0.4,5,1.3,5.8s2.7,1.3,5.3,1.3c3,0,5-0.4,5.8-1.4c0.9-0.9,1.3-3.1,1.3-6.6v-51.2L817.3,459.9L817.3,459.9z
	 M580,459.9h47.8c15.1,0,26.5,0.5,34.3,1.4c7.8,0.9,14.1,2.7,18.9,5.4c4.8,2.7,7.2,7.1,7.2,13.1c0,4.1-1.7,6.9-5.1,8.5
	c-3.4,1.6-10,2.8-19.9,3.7c11.1,1,18.6,2.5,22.5,4.7c3.9,2.1,5.9,5.5,5.9,10v6.4c0,4.7-1.4,8.2-4.3,10.4c-2.8,2.2-7.3,3.8-13.5,4.6
	c-6.2,0.8-19,1.3-38.3,1.3H580L580,459.9L580,459.9z M627.9,471.8v15.5c2,0,3.6-0.1,4.8-0.1c4.7,0,7.7-0.4,9-1.3
	c1.3-0.9,2-3.4,2-7.5c0-2.2-0.5-3.7-1.6-4.5c-1.1-0.9-2.5-1.4-4.2-1.7C636.2,472,632.8,471.8,627.9,471.8L627.9,471.8z M627.9,498.1
	v19.5c6.7-0.1,11-0.5,12.9-1.2c1.9-0.7,2.8-2.5,2.8-5.3v-6.4c0-3-0.8-4.8-2.5-5.4C639.4,498.5,635,498.2,627.9,498.1L627.9,498.1z"
	/>
<path id="path54495" class="st2" d="M440.4,483.2l-1.1,75.2l-75.5,1l1-75.2L440.4,483.2L440.4,483.2z M394.2,469.5l-75.7,12
	l-14.1-72.7l75.7-12.1L394.2,469.5L394.2,469.5z M378,390.9l-75.3-14l12.1-73l75.3,14L378,390.9z M432.5,322.6l-65.9-38.5l36.9-64.6
	l65.9,38.5L432.5,322.6z"/>
<path id="path54523" class="st1" d="M1214.4,539.1l-14.6,20v14.5h-6.9v-14.5l-14.6-20h8.3l9.8,14l9.7-14H1214.4z M1158.5,564.3
	c-0.2-0.6-0.6-1.2-1-1.8c-0.4-0.5-0.9-1-1.5-1.4c-0.6-0.4-1.2-0.7-1.9-0.9c-0.7-0.2-1.4-0.4-2.1-0.4h-7.4v13.8h-6.9v-34.5h16.6
	c1,0,1.9,0,2.7,0.1c0.9,0,1.8,0.2,2.6,0.3c0.8,0.2,1.6,0.4,2.3,0.7c0.8,0.3,1.5,0.7,2.1,1.3c1.2,1,2.1,2.1,2.7,3.5
	c0.6,1.4,0.9,2.7,0.9,4.2c0,2.1-0.5,3.9-1.6,5.4c-1.1,1.5-2.6,2.7-4.5,3.5c0.8,0.6,1.5,1.3,2.1,2.1c0.6,0.8,1.2,1.9,1.7,3.2l4,10.2
	h-7.5L1158.5,564.3L1158.5,564.3z M1144.6,553.8h9.2c1.2,0,2.2-0.1,3.1-0.2c0.9-0.1,1.6-0.4,2.2-0.8c0.5-0.4,1-0.8,1.2-1.4
	c0.3-0.6,0.4-1.3,0.4-2.2c0-1.5-0.5-2.6-1.6-3.3c-1-0.7-2.6-1.1-4.7-1.1h-9.8V553.8L1144.6,553.8z M1110.8,558.3l-4.5-10.9
	l-4.2,10.9H1110.8z M1124.7,573.6h-7.7l-4-9.8h-13l-3.8,9.8h-7.3l14.2-34.5h6.6L1124.7,573.6z M1068.5,564.3c-0.2-0.6-0.6-1.2-1-1.8
	c-0.4-0.5-0.9-1-1.5-1.4c-0.6-0.4-1.2-0.7-1.9-0.9c-0.7-0.2-1.4-0.4-2.1-0.4h-7.4v13.8h-6.9v-34.5h16.6c1,0,1.9,0,2.7,0.1
	c0.9,0,1.8,0.2,2.6,0.3c0.8,0.2,1.6,0.4,2.3,0.7c0.8,0.3,1.5,0.7,2.1,1.3c1.2,1,2.1,2.1,2.7,3.5c0.6,1.4,0.9,2.7,0.9,4.2
	c0,2.1-0.5,3.9-1.6,5.4c-1.1,1.5-2.6,2.7-4.5,3.5c0.8,0.6,1.5,1.3,2.1,2.1c0.6,0.8,1.2,1.9,1.7,3.2l4,10.2h-7.5L1068.5,564.3
	L1068.5,564.3z M1054.6,553.8h9.2c1.2,0,2.2-0.1,3.1-0.2c0.9-0.1,1.6-0.4,2.2-0.8c0.5-0.4,1-0.8,1.2-1.4c0.3-0.6,0.4-1.3,0.4-2.2
	c0-1.5-0.5-2.6-1.6-3.3c-1-0.7-2.6-1.1-4.7-1.1h-9.8V553.8L1054.6,553.8z M1033.4,563.2c0,3.4-1.2,6-3.5,7.8
	c-2.4,1.8-5.9,2.6-10.6,2.6h-14.2v-34.5h13.5c2,0,3.8,0.2,5.4,0.7c1.6,0.5,3,1.1,4.1,1.9c1.1,0.8,2,1.8,2.7,2.9c0.6,1.2,1,2.4,1,3.9
	c0,1.5-0.3,2.7-0.9,3.8c-0.6,1.1-1.5,2-2.7,2.9c0.9,0.4,1.7,0.9,2.3,1.5c0.7,0.6,1.2,1.2,1.7,1.9c0.4,0.7,0.8,1.4,1,2.2
	C1033.3,561.6,1033.4,562.4,1033.4,563.2L1033.4,563.2z M1012,552.8h6.6c2.1,0,3.7-0.3,4.7-0.9c1-0.6,1.6-1.6,1.6-3
	c0-0.6-0.1-1.1-0.4-1.6c-0.2-0.5-0.6-0.9-1.1-1.2c-0.5-0.3-1.2-0.5-2.1-0.7c-0.8-0.1-1.9-0.2-3.2-0.2h-6.1V552.8L1012,552.8z
	 M1012,567.7h7.3c4.7,0,7.1-1.5,7.1-4.5c0-0.8-0.1-1.5-0.4-2c-0.2-0.6-0.7-1.1-1.3-1.4c-0.6-0.4-1.4-0.7-2.4-0.8
	c-1-0.2-2.3-0.3-3.8-0.3h-6.6V567.7L1012,567.7z M985.1,573.6h-6.9v-34.5h6.9V573.6z M963.2,573.6h-23.8v-34.5h6.9v28.6h17V573.6z
	 M839.1,561.6c0.2,1.1,0.6,2,1.1,2.8c0.6,0.8,1.2,1.4,2,1.9c0.8,0.5,1.7,0.9,2.7,1.1c1,0.2,2,0.4,3.1,0.4c1.1,0,2.1-0.1,3-0.3
	c1-0.2,1.8-0.5,2.4-0.9c0.7-0.4,1.2-0.9,1.6-1.4c0.4-0.6,0.5-1.2,0.5-1.9c0-0.7-0.2-1.3-0.5-1.8c-0.3-0.5-0.9-1-1.7-1.4
	c-0.8-0.4-1.8-0.7-3.1-1.1c-1.3-0.3-2.8-0.7-4.7-1c-2.1-0.4-3.9-0.9-5.5-1.5c-1.5-0.6-2.8-1.3-3.8-2.1c-1-0.8-1.7-1.7-2.1-2.7
	c-0.4-1-0.7-2.2-0.7-3.6c0-1.4,0.3-2.8,1-4c0.6-1.2,1.6-2.3,2.7-3.2c1.2-0.9,2.6-1.6,4.2-2c1.7-0.5,3.5-0.8,5.6-0.8s3.9,0.3,5.6,0.8
	c1.7,0.5,3.1,1.2,4.4,2.1c1.3,0.9,2.3,2.1,3,3.4c0.8,1.4,1.3,2.9,1.4,4.5h-6.7c-0.8-3.2-3.2-4.9-7.5-4.9c-2.2,0-3.9,0.4-5.1,1.1
	c-1.2,0.7-1.8,1.7-1.8,2.9c0,0.5,0.1,1,0.4,1.4c0.3,0.4,0.7,0.7,1.3,1c0.6,0.3,1.3,0.6,2.1,0.8c0.9,0.2,2,0.5,3.3,0.7
	c1.1,0.2,2.2,0.5,3.3,0.8c1.2,0.2,2.4,0.5,3.5,0.9c1.1,0.4,2.1,0.8,3.1,1.3c1,0.5,1.9,1.2,2.6,1.9c0.8,0.7,1.3,1.6,1.7,2.6
	c0.4,1,0.7,2.2,0.7,3.5c0,1.6-0.4,3-1.1,4.4c-0.7,1.3-1.6,2.4-2.9,3.4c-1.2,0.9-2.7,1.7-4.4,2.2c-1.7,0.5-3.5,0.8-5.6,0.8
	c-2.5,0-4.8-0.3-6.7-0.8c-1.9-0.6-3.5-1.4-4.8-2.5c-1.3-1.1-2.4-2.3-3.1-3.8c-0.7-1.5-1.2-3.1-1.3-4.9L839.1,561.6L839.1,561.6z
	 M814.1,549.5c-0.2-0.9-0.5-1.6-1-2.3c-0.5-0.7-1.1-1.3-1.8-1.8s-1.5-0.8-2.4-1.1c-0.9-0.3-1.9-0.4-2.9-0.4c-1.6,0-3,0.3-4.3,0.8
	c-1.3,0.5-2.4,1.3-3.3,2.3c-0.9,1-1.6,2.3-2,3.8c-0.5,1.5-0.7,3.2-0.7,5.1c0,1.9,0.2,3.6,0.7,5.1c0.5,1.5,1.1,2.8,2,3.8
	c0.9,1.1,2,1.8,3.2,2.3c1.3,0.5,2.7,0.8,4.2,0.8c2.2,0,4.1-0.5,5.5-1.6c1.5-1.1,2.4-2.6,2.7-4.7h7.1c-0.3,2-0.9,3.7-1.7,5.2
	c-0.8,1.5-1.9,2.7-3.3,3.8c-1.3,1-2.9,1.8-4.6,2.3c-1.8,0.5-3.6,0.8-5.7,0.8c-2.7,0-5.1-0.4-7.2-1.3c-2.1-0.8-3.9-2-5.4-3.6
	c-1.5-1.6-2.6-3.4-3.5-5.6c-0.8-2.2-1.2-4.6-1.2-7.3c0-2.7,0.4-5.1,1.2-7.3c0.8-2.2,2-4.1,3.5-5.6c1.5-1.6,3.3-2.7,5.4-3.6
	c2.1-0.8,4.5-1.3,7.2-1.3c1.9,0,3.7,0.3,5.4,0.8c1.7,0.5,3.2,1.3,4.6,2.3c1.3,1,2.5,2.2,3.4,3.6c0.9,1.4,1.5,3,1.9,4.7H814.1z
	 M770.7,573.6h-6.9v-34.5h6.9V573.6z M723.4,561.6c0.2,1.1,0.6,2,1.1,2.8c0.6,0.8,1.2,1.4,2,1.9c0.8,0.5,1.7,0.9,2.7,1.1
	c1,0.2,2,0.4,3.1,0.4c1.1,0,2.1-0.1,3-0.3c1-0.2,1.8-0.5,2.4-0.9c0.7-0.4,1.2-0.9,1.6-1.4c0.4-0.6,0.5-1.2,0.5-1.9
	c0-0.7-0.2-1.3-0.5-1.8c-0.3-0.5-0.9-1-1.7-1.4c-0.8-0.4-1.8-0.7-3.1-1.1c-1.3-0.3-2.8-0.7-4.7-1c-2.1-0.4-3.9-0.9-5.5-1.5
	c-1.5-0.6-2.8-1.3-3.8-2.1c-1-0.8-1.7-1.7-2.1-2.7c-0.4-1-0.7-2.2-0.7-3.6c0-1.4,0.3-2.8,1-4c0.6-1.2,1.6-2.3,2.7-3.2
	c1.2-0.9,2.6-1.6,4.2-2c1.7-0.5,3.5-0.8,5.6-0.8c2,0,3.9,0.3,5.6,0.8c1.7,0.5,3.1,1.2,4.4,2.1c1.3,0.9,2.3,2.1,3,3.4
	c0.8,1.4,1.3,2.9,1.4,4.5h-6.7c-0.8-3.2-3.2-4.9-7.5-4.9c-2.2,0-3.9,0.4-5.1,1.1c-1.2,0.7-1.8,1.7-1.8,2.9c0,0.5,0.1,1,0.4,1.4
	c0.3,0.4,0.7,0.7,1.3,1c0.6,0.3,1.3,0.6,2.1,0.8c0.9,0.2,2,0.5,3.3,0.7c1.1,0.2,2.2,0.5,3.3,0.8c1.2,0.2,2.4,0.5,3.5,0.9
	c1.1,0.4,2.1,0.8,3.1,1.3c1,0.5,1.9,1.2,2.6,1.9c0.8,0.7,1.3,1.6,1.7,2.6c0.4,1,0.7,2.2,0.7,3.5c0,1.6-0.4,3-1.1,4.4
	c-0.7,1.3-1.6,2.4-2.9,3.4c-1.2,0.9-2.7,1.7-4.4,2.2c-1.7,0.5-3.5,0.8-5.6,0.8c-2.5,0-4.8-0.3-6.7-0.8c-1.9-0.6-3.5-1.4-4.8-2.5
	c-1.3-1.1-2.4-2.3-3.1-3.8c-0.7-1.5-1.2-3.1-1.3-4.9L723.4,561.6L723.4,561.6z M705.7,539.1l-14.6,20v14.5h-6.9v-14.5l-14.6-20h8.3
	l9.8,14l9.7-14H705.7z M654.5,573.6h-6.9v-15.3h-15.8v15.3h-6.9v-34.5h6.9v13.3h15.8v-13.3h6.9V573.6z M579.3,539.1h12.3
	c1.6,0,3.2,0.2,4.7,0.5c1.5,0.3,2.8,0.9,4,1.7c1.1,0.8,2.1,1.9,2.7,3.2c0.7,1.3,1.1,3,1.1,5.1c0,3.7-1.1,6.4-3.1,8.3
	c-2.1,1.8-5.1,2.7-9.2,2.7h-6.6v13h-6V539.1L579.3,539.1z M585.2,554.8h6.7c1.1,0,2-0.1,2.8-0.3c0.7-0.2,1.4-0.6,1.9-1
	c0.5-0.4,0.9-1,1.1-1.6c0.2-0.6,0.4-1.3,0.4-2.1c0-1-0.2-1.8-0.5-2.4c-0.3-0.6-0.8-1.1-1.3-1.4c-0.6-0.4-1.2-0.6-2-0.7
	c-0.8-0.1-1.6-0.2-2.4-0.2h-6.6V554.8L585.2,554.8z"/>
</svg>
