<?xml version="1.0" encoding="utf-8"?>
<!-- Generator: Adobe Illustrator 19.0.1, SVG Export Plug-In . SVG Version: 6.00 Build 0)  -->
<svg version="1.1" id="Layer_1" xmlns="http://www.w3.org/2000/svg" xmlns:xlink="http://www.w3.org/1999/xlink" x="0px" y="0px"
	 viewBox="-20 142 570 510" style="enable-background:new -20 142 570 510;" xml:space="preserve">
<style type="text/css">
	.st0{fill-opacity:0;}
	.st1{fill:#00D8FF;}
	.st2{fill-opacity:0;stroke:#00D8FF;stroke-width:24;stroke-miterlimit:10;}
</style>
<g id="Background">
	<rect x="-20" y="142" class="st0" width="570" height="510"/>
</g>
<g id="Layer_1_1_">
	<path class="st1" d="M314.7,396.6c0,27.7-22.5,50.2-50.2,50.2s-50.2-22.5-50.2-50.2c0-27.7,22.5-50.2,50.2-50.2
		S314.7,368.9,314.7,396.6z"/>
	<path class="st2" d="M264.5,294.6c67.4,0,129.9,9.7,177.1,25.9c56.8,19.6,91.8,49.2,91.8,76.1c0,28-37,59.5-98.1,79.7
		c-46.2,15.3-106.9,23.3-170.8,23.3c-65.6,0-127.6-7.5-174.3-23.4c-59-20.2-94.6-52.1-94.6-79.6C-4.4,370,29,340.6,85,321
		C132.4,304.5,196.5,294.6,264.5,294.6z"/>
	<path class="st2" d="M175.7,345.9c33.6-58.3,73.3-107.7,110.9-140.5c45.4-39.5,88.5-54.9,111.8-41.5c24.2,14,33,61.8,20.1,124.8
		c-9.8,47.6-33.2,104.2-65.2,159.6c-32.7,56.8-70.3,106.8-107.4,139.3c-47,41.1-92.4,55.9-116.2,42.2
		c-23.1-13.3-31.9-56.9-20.8-115.2C118.3,465.3,141.8,404.8,175.7,345.9z"/>
	<path class="st2" d="M175.8,448.5c-33.7-58.3-56.7-117.3-66.3-166.3c-11.5-59-3.4-104.1,19.9-117.6c24.2-14,70.1,2.2,118.1,44.9
		c36.4,32.3,73.7,80.8,105.7,136.2c32.8,56.7,57.5,114.2,67,162.6c12.1,61.2,2.3,108-21.5,121.7c-23.1,13.3-65.2-0.8-110.2-39.5
		C250.6,557.9,209.9,507.3,175.8,448.5z"/>
</g>
</svg>
