<?xml version="1.0" encoding="utf-8"?>
<!-- Generator: Adobe Illustrator 19.0.1, SVG Export Plug-In . SVG Version: 6.00 Build 0)  -->
<svg version="1.1" id="Layer_1" xmlns="http://www.w3.org/2000/svg" xmlns:xlink="http://www.w3.org/1999/xlink" x="0px" y="0px"
	 viewBox="-273 365 64 64" style="enable-background:new -273 365 64 64;" xml:space="preserve">
<style type="text/css">
	.st0{fill:#FFFFFF;}
	.st1{fill:#B8E361;}
	.st2{fill:#FFAE54;}
</style>
<g>
	<path class="st0" d="M-244.6,396.9c0,2.2,1.8,4,4,4c1.5,0,2.9-0.9,3.5-2.2l0,0l7.2-13.1l-12.7,7.8l0,0
		C-243.8,394.1-244.6,395.4-244.6,396.9z"/>
	<path class="st1" d="M-224.7,378c-4.1-3.6-9.3-5.8-15.3-6.2v6c5,0.3,7.9,1.9,10.9,4.4L-224.7,378z"/>
	<path class="st2" d="M-221.9,395h6c-0.4-6-2.8-10.9-6.4-15l-4.3,4.2C-223.9,387.2-222.2,391-221.9,395z"/>
	<path class="st0" d="M-221.8,398c-0.6,10-8.9,17.9-19,17.9c-10.5,0-19.4-8.5-19.4-19.1c0-10,8.3-18.2,17.3-19v-6
		c-13,0.8-23.3,11.7-23.3,25.1c0,13.8,11.4,25.1,25.3,25.1c13.4,0,24.6-10.9,25.2-23.9H-221.8z"/>
</g>
</svg>
